<svg width="73" height="56" viewBox="0 0 73 56" xmlns="http://www.w3.org/2000/svg"><title>“</title><g fill="none" fill-rule="evenodd"><path fill="#EEE" d="M-275-91h1440v435H-275z"/><path fill="#FFF" d="M-40-589h970v933H-40z"/><path d="M26.023.255c-16.2 9.2-26 21-26 36 0 9.6 5.6 18.8 17.2 18.8 8.8 0 15.6-5.4 15.6-14.2 0-7-5.2-11.6-9.4-13.4l-6.4 6.4c-2.2-1-3.2-3.4-3.2-6.2 0-7.2 7.6-14.4 17-20.2l-4.8-7.2zm39.4 0c-16.2 9.2-26 21-26 36 0 9.6 5.6 18.8 17.2 18.8 9 0 15.8-5.4 15.8-14.2 0-7-5.2-11.6-9.6-13.4l-6.2 6.4c-2.4-1-3.2-3.4-3.2-6.2 0-7.2 7.4-14.4 17-20.2l-5-7.2z" fill="#2F6CA9" opacity=".1"/></g></svg>