<?xml version="1.0" encoding="UTF-8" standalone="no"?>
<svg width="30px" height="30px" viewBox="0 0 30 30" version="1.1" xmlns="http://www.w3.org/2000/svg" xmlns:xlink="http://www.w3.org/1999/xlink">
    <!-- Generator: Sketch 39.1 (31720) - http://www.bohemiancoding.com/sketch -->
    <title>Group 4 Copy</title>
    <desc>Created with Sketch.</desc>
    <defs></defs>
    <g id="v6-Mobile-" stroke="none" stroke-width="1" fill="none" fill-rule="evenodd">
        <g id="Mobile-Items-Tab" transform="translate(-87.000000, -94.000000)">
            <g id="Group-4-Copy" transform="translate(87.000000, 94.000000)">
                <rect id="Rectangle-2" fill="#FFFFFF" x="10" y="4" width="9" height="15" rx="4.5"></rect>
                <path d="M26.25,0 L2.91666667,0 C1.30520833,0 0.0145833333,1.30520833 0.0145833333,2.91666667 L0,29.1666667 L5.83333333,23.3333333 L26.25,23.3333333 C27.8614583,23.3333333 29.1666667,22.028125 29.1666667,20.4166667 L29.1666667,2.91666667 C29.1666667,1.30520833 27.8614583,0 26.25,0 L26.25,0 Z M16.0416667,17.5 L13.125,17.5 L13.125,14.5833333 L16.0416667,14.5833333 L16.0416667,17.5 L16.0416667,17.5 Z M16.0416667,11.6666667 L13.125,11.6666667 L13.125,5.83333333 L16.0416667,5.83333333 L16.0416667,11.6666667 L16.0416667,11.6666667 Z" id="Page-1" fill="#D9354A"></path>
            </g>
        </g>
    </g>
</svg>