<?xml version="1.0" encoding="UTF-8" standalone="no"?>
<svg width="41px" height="51px" viewBox="0 0 41 51" version="1.1" xmlns="http://www.w3.org/2000/svg" xmlns:xlink="http://www.w3.org/1999/xlink">
    <!-- Generator: Sketch 39.1 (31720) - http://www.bohemiancoding.com/sketch -->
    <title>Imported Layers 3 Copy</title>
    <desc>Created with Sketch.</desc>
    <defs></defs>
    <g id="v6-Mobile-" stroke="none" stroke-width="1" fill="none" fill-rule="evenodd" opacity="0.455165578">
        <g id="Mobile-Home-Tab" transform="translate(-549.000000, -103.000000)" fill="#4A4A4A">
            <g id="Group-14" transform="translate(0.000000, 78.000000)">
                <path d="M589.99194,58.222999 L589.99194,38.9809236 C589.983879,35.9068777 587.344748,34.0699634 584.790253,34.0699634 C584.246171,34.0706001 583.703433,34.1540094 583.186892,34.311914 L583.186892,32.0420355 C583.178159,28.9686263 580.539029,27.131712 577.986548,27.131712 C577.229536,27.1323487 576.475211,27.2934369 575.790071,27.5907814 C574.851027,25.8843931 572.942712,25 571.179485,25 C569.875705,25.0019101 568.582672,25.4788075 567.632209,26.3097167 C566.728093,27.0992397 566.171921,28.1549083 566.032878,29.3258218 C565.500216,29.1570931 564.93867,29.0685901 564.375109,29.0685901 C563.072,29.0705003 561.780311,29.5473976 560.827832,30.3776701 C559.767881,31.3021761 559.187528,32.5876977 559.191558,33.9954681 L559.191558,48.223436 C558.07787,46.5081337 556.132611,45.4594689 553.907251,45.4594689 C553.253682,45.4594689 552.612203,45.5530656 551.999608,45.7370754 C550.798598,46.0993645 550.694484,46.1324736 550.695156,46.1324736 C550.695156,46.1324736 550.695827,46.1324736 550.696499,46.1318369 L550.246456,46.2661831 C549.789697,46.4049863 549.418244,46.7016942 549.201955,47.0990025 C548.98365,47.4975842 548.939989,47.9541068 549.082391,48.3921647 L554.186009,63.7178242 C554.194069,63.7401091 554.202802,63.7630307 554.213549,63.7859524 C556.641764,70.8649172 563.491145,75.7618697 571.257403,75.9898126 C571.309796,75.9961797 571.362189,76 571.411223,76 C581.661449,76 590,68.0831221 590,58.3522516 C590,58.311502 589.996641,58.2675689 589.99194,58.222999 L589.99194,58.222999 Z M571.532802,72.9246807 L571.526757,72.9246807 L571.448167,72.9208604 C564.933968,72.7521317 559.227158,68.6440655 557.245627,62.6978115 L552.61086,48.7767388 L552.930591,48.681232 C553.286595,48.5736276 553.608342,48.5265109 553.937478,48.5265109 C554.4426,48.5265109 556.138657,48.6704079 556.758641,50.5168729 L559.587192,59.0074283 C559.602642,59.0583653 559.623465,59.1061187 559.646974,59.1519619 C559.669812,59.1990786 559.689963,59.2347345 559.712801,59.2716638 C559.752432,59.3391553 559.809527,59.4308418 559.88543,59.5104308 C559.937823,59.5677349 559.990887,59.6142149 560.050669,59.662605 C560.14538,59.7320066 560.201803,59.7695727 560.230686,59.784217 C560.343533,59.8459781 560.435556,59.8873644 560.507429,59.9090126 C560.585347,59.9338444 560.659906,59.9497622 560.740511,59.9631331 C560.833878,59.9841446 560.906422,59.9917852 560.980981,59.9917852 L561.073677,59.9886016 C561.269815,59.9771408 561.527078,59.9663167 561.834047,59.9663167 C564.079558,59.9663167 568.289137,60.4884206 571.250686,63.9846065 C571.706774,64.5277219 572.722392,64.64042 573.294014,64.2036355 C573.598296,63.9744192 573.789061,63.6465124 573.83205,63.2797663 C573.874367,62.9123834 573.764208,62.5520044 573.52105,62.2648473 C570.25589,58.4095557 565.863608,57.4041873 562.753612,57.2392789 L562.436567,57.2227244 L562.436567,33.9897377 C562.435224,33.4351615 562.632705,32.9799124 563.024309,32.637998 C563.380313,32.3272825 563.888122,32.1413626 564.383169,32.1407259 C565.3249,32.1407259 566.327757,32.7825316 566.335145,33.9719098 L566.335817,53.0248817 C566.335817,53.7844792 566.987371,54.4027266 567.788716,54.4027266 C568.589389,54.4027266 569.241615,53.7844792 569.241615,53.0248817 L569.240943,29.922421 C569.2396,29.3665714 569.437753,28.9113222 569.830701,28.5694079 C570.196108,28.2504151 570.695185,28.0734092 571.235908,28.0727724 C572.156816,28.0727724 573.136835,28.7183985 573.139522,29.9154172 L573.139522,52.8523327 C573.139522,53.6119302 573.791748,54.2308144 574.593092,54.2308144 C575.394437,54.2308144 576.046663,53.6119302 576.046663,52.8523327 L576.046663,32.0554064 C576.045319,31.4982834 576.243472,31.0430342 576.637092,30.7004832 C576.991081,30.3916778 577.498218,30.2063946 577.993937,30.2057579 C578.937683,30.2057579 579.942554,30.8513839 579.945913,32.0471292 L579.947256,38.9318968 L579.945241,38.9974781 L579.945913,53.0535338 C579.945913,53.8131313 580.598139,54.4313787 581.398812,54.4313787 C582.200828,54.4313787 582.852382,53.8131313 582.852382,53.0535338 L582.852382,38.9879274 C582.852382,38.4339879 583.049864,37.9806489 583.440125,37.6419181 C583.7968,37.3318393 584.303938,37.1452827 584.798313,37.1440093 C585.743403,37.1440093 586.748274,37.7889986 586.750961,38.9853806 L586.750961,58.3522516 C586.750961,58.3802669 586.752976,58.408919 586.756334,58.4388444 C586.686477,66.3818275 579.855904,72.8641931 571.532802,72.9246807 L571.532802,72.9246807 Z" id="Imported-Layers-3-Copy"></path>
            </g>
        </g>
    </g>
</svg>